<svg width="24" height="23" viewBox="0 0 24 23" fill="none" xmlns="http://www.w3.org/2000/svg">
<path d="M20.8847 7.13942H16.2437C15.6284 7.14005 15.0386 7.39099 14.6035 7.83715C14.1685 8.28331 13.9238 8.88826 13.9232 9.51923V14.2788C13.9236 14.6995 14.0867 15.1028 14.3767 15.4002C14.6668 15.6977 15.06 15.865 15.4702 15.8654V21.4183C15.4706 21.8389 15.6337 22.2422 15.9237 22.5397C16.2138 22.8371 16.607 23.0044 17.0172 23.0048H20.1112C20.5214 23.0044 20.9147 22.8371 21.2047 22.5397C21.4947 22.2422 21.6578 21.8389 21.6583 21.4183V15.8654C22.0684 15.865 22.4617 15.6977 22.7517 15.4002C23.0417 15.1028 23.2049 14.6995 23.2053 14.2788V9.51923C23.2047 8.88826 22.96 8.28331 22.5249 7.83715C22.0899 7.39099 21.5 7.14005 20.8847 7.13942ZM21.6583 14.2788H20.1112V21.4183H17.0172V14.2788H15.4702V9.51923C15.4702 9.30884 15.5517 9.10707 15.6967 8.95831C15.8418 8.80954 16.0385 8.72596 16.2437 8.72596H20.8847C21.0899 8.72596 21.2866 8.80954 21.4317 8.95831C21.5768 9.10707 21.6583 9.30884 21.6583 9.51923V14.2788ZM15.4702 3.17308C15.4702 2.5455 15.6516 1.93202 15.9916 1.41021C16.3316 0.888401 16.8148 0.4817 17.3802 0.241538C17.9455 0.00137484 18.5677 -0.0614627 19.1678 0.0609712C19.768 0.183405 20.3193 0.485611 20.752 0.929374C21.1847 1.37314 21.4794 1.93853 21.5988 2.55404C21.7182 3.16956 21.6569 3.80756 21.4227 4.38736C21.1886 4.96717 20.792 5.46273 20.2832 5.8114C19.7744 6.16006 19.1762 6.34616 18.5642 6.34616C17.7439 6.34532 16.9574 6.01074 16.3773 5.41586C15.7972 4.82097 15.471 4.01437 15.4702 3.17308ZM17.0172 3.17308C17.0172 3.48687 17.1079 3.79361 17.2779 4.05451C17.4479 4.31542 17.6895 4.51877 17.9722 4.63885C18.2549 4.75893 18.5659 4.79035 18.866 4.72913C19.1661 4.66792 19.4418 4.51681 19.6581 4.29493C19.8745 4.07305 20.0218 3.79036 20.0815 3.4826C20.1412 3.17484 20.1106 2.85584 19.9935 2.56594C19.8764 2.27603 19.6781 2.02825 19.4237 1.85392C19.1693 1.67959 18.8702 1.58654 18.5642 1.58654C18.1541 1.58696 17.7608 1.75425 17.4708 2.05169C17.1807 2.34913 17.0176 2.75243 17.0172 3.17308ZM10.8291 11.899V9.51923C10.8285 8.88826 10.5838 8.28331 10.1488 7.83715C9.71373 7.39099 9.12385 7.14005 8.5086 7.13942H3.86755C3.25229 7.14005 2.66241 7.39099 2.22736 7.83715C1.79231 8.28331 1.54763 8.88826 1.54702 9.51923V11.899H0V13.4856H12.3761V11.899H10.8291ZM3.09404 9.51923C3.09404 9.30884 3.17553 9.10707 3.32059 8.95831C3.46565 8.80954 3.6624 8.72596 3.86755 8.72596H8.5086C8.71375 8.72596 8.91049 8.80954 9.05555 8.95831C9.20062 9.10707 9.28211 9.30884 9.28211 9.51923V11.899H3.09404V9.51923ZM3.09404 3.17308C3.09404 2.5455 3.2755 1.93202 3.61548 1.41021C3.95545 0.888401 4.43868 0.4817 5.00404 0.241538C5.5694 0.00137484 6.19151 -0.0614627 6.79169 0.0609712C7.39187 0.183405 7.94318 0.485611 8.37589 0.929374C8.8086 1.37314 9.10328 1.93853 9.22266 2.55404C9.34204 3.16956 9.28077 3.80756 9.04659 4.38736C8.81241 4.96717 8.41584 5.46273 7.90703 5.8114C7.39822 6.16006 6.80002 6.34616 6.18807 6.34616C5.36774 6.34532 4.58123 6.01074 4.00116 5.41586C3.4211 4.82097 3.09486 4.01437 3.09404 3.17308ZM4.64106 3.17308C4.64106 3.48687 4.73179 3.79361 4.90177 4.05451C5.07176 4.31542 5.31337 4.51877 5.59605 4.63885C5.87874 4.75893 6.18979 4.79035 6.48988 4.72913C6.78997 4.66792 7.06563 4.51681 7.28198 4.29493C7.49833 4.07305 7.64567 3.79036 7.70537 3.4826C7.76506 3.17484 7.73442 2.85584 7.61733 2.56594C7.50024 2.27603 7.30196 2.02825 7.04755 1.85392C6.79314 1.67959 6.49404 1.58654 6.18807 1.58654C5.7779 1.58696 5.38465 1.75425 5.09462 2.05169C4.80458 2.34913 4.64146 2.75243 4.64106 3.17308Z" fill="white"/>
</svg>
